<svg xmlns="http://www.w3.org/2000/svg" xmlns:xlink="http://www.w3.org/1999/xlink" width="500" zoomAndPan="magnify" viewBox="0 0 375 374.999991" height="500" preserveAspectRatio="xMidYMid meet" version="1.0"><defs><g/><clipPath id="85262ecbf0"><path d="M 136 68 L 164 68 L 164 89 L 136 89 Z M 136 68 " clip-rule="nonzero"/></clipPath><clipPath id="3badbe85eb"><path d="M 135.25 86.105469 L 139.191406 64.714844 L 166.480469 69.742188 L 162.542969 91.132812 Z M 135.25 86.105469 " clip-rule="nonzero"/></clipPath><clipPath id="bbec90aec1"><path d="M 139.167969 64.832031 L 135.230469 86.21875 L 162.519531 91.246094 L 166.460938 69.855469 Z M 139.167969 64.832031 " clip-rule="nonzero"/></clipPath><clipPath id="f0feb2c768"><path d="M 287 202 L 312 202 L 312 240 L 287 240 Z M 287 202 " clip-rule="nonzero"/></clipPath><clipPath id="b8f716ce91"><path d="M 312.246094 241.492188 L 283.894531 238.589844 L 287.632812 202.03125 L 315.984375 204.929688 Z M 312.246094 241.492188 " clip-rule="nonzero"/></clipPath><clipPath id="ae4c4fd94c"><path d="M 312.246094 241.492188 L 283.894531 238.589844 L 287.632812 202.03125 L 315.984375 204.929688 Z M 312.246094 241.492188 " clip-rule="nonzero"/></clipPath><clipPath id="b511021aa3"><path d="M 180 63 L 292 63 L 292 144 L 180 144 Z M 180 63 " clip-rule="nonzero"/></clipPath><clipPath id="2a37984264"><path d="M 249.511719 175.03125 L 166.277344 87.554688 L 224.414062 32.234375 L 307.648438 119.710938 Z M 249.511719 175.03125 " clip-rule="nonzero"/></clipPath><clipPath id="e9e9f68712"><path d="M 249.511719 175.03125 L 166.277344 87.554688 L 224.414062 32.234375 L 307.648438 119.710938 Z M 249.511719 175.03125 " clip-rule="nonzero"/></clipPath><clipPath id="a17971c2b0"><path d="M 81 230 L 130 230 L 130 277 L 81 277 Z M 81 230 " clip-rule="nonzero"/></clipPath><clipPath id="6a74f38d5b"><path d="M 69.878906 246.734375 L 104.765625 223.347656 L 134.832031 268.203125 L 99.945312 291.585938 Z M 69.878906 246.734375 " clip-rule="nonzero"/></clipPath><clipPath id="5b5d8d6b04"><path d="M 69.878906 246.734375 L 104.765625 223.347656 L 134.832031 268.203125 L 99.945312 291.585938 Z M 69.878906 246.734375 " clip-rule="nonzero"/></clipPath><clipPath id="6474a83da4"><path d="M 97 91 L 296 91 L 296 287 L 97 287 Z M 97 91 " clip-rule="nonzero"/></clipPath><clipPath id="e3424e76db"><path d="M 116.230469 63.640625 L 312.890625 101.375 L 271.90625 314.976562 L 75.246094 277.242188 Z M 116.230469 63.640625 " clip-rule="nonzero"/></clipPath><clipPath id="4e7ac34a07"><path d="M 116.230469 63.640625 L 312.890625 101.375 L 271.90625 314.976562 L 75.246094 277.242188 Z M 116.230469 63.640625 " clip-rule="nonzero"/></clipPath></defs><rect x="-37.5" width="450" fill="#ffffff" y="-37.499999" height="449.999989" fill-opacity="1"/><rect x="-37.5" width="450" fill="#ffffff" y="-37.499999" height="449.999989" fill-opacity="1"/><rect x="-37.5" width="450" fill="#ffffff" y="-37.499999" height="449.999989" fill-opacity="1"/><path fill="#9da073" d="M 269.019531 103.136719 C 242.445312 90.613281 203.082031 60.546875 164.699219 76.945312 C 126.320312 93.34375 81.277344 149.980469 75.671875 179.890625 C 70.070312 209.804688 87.257812 276.839844 155.539062 295.820312 C 223.824219 314.796875 281.132812 284.734375 302.933594 170.859375 C 302.933594 170.859375 295.589844 115.664062 269.019531 103.136719 Z M 202.929688 279.648438 C 184.308594 284.277344 159.703125 275.625 133.132812 254.976562 C 106.558594 234.324219 106.558594 218.988281 99.898438 198.945312 C 93.238281 178.90625 104.515625 158.253906 120.488281 136.316406 C 136.460938 114.375 157.207031 102.683594 176.964844 99.644531 C 202.855469 95.621094 235.480469 103.667969 253.421875 110.273438 C 271.367188 116.878906 281.964844 144.96875 283.328125 163.644531 C 284.6875 182.320312 277.347656 198.945312 265.386719 227.644531 C 253.421875 256.339844 221.554688 275.015625 202.929688 279.648438 Z M 202.929688 279.648438 " fill-opacity="1" fill-rule="nonzero"/><g clip-path="url(#85262ecbf0)"><g clip-path="url(#3badbe85eb)"><g clip-path="url(#bbec90aec1)"><path fill="#9da073" d="M 136.878906 77.75 C 136.21875 80.855469 137.757812 85.886719 149.21875 85.914062 C 160.675781 85.941406 162.519531 91.246094 163.515625 85.851562 C 164.507812 80.457031 159.171875 73.320312 153.867188 69.941406 C 148.5625 66.558594 138.632812 69.496094 136.878906 77.75 Z M 136.878906 77.75 " fill-opacity="1" fill-rule="nonzero"/></g></g></g><g clip-path="url(#f0feb2c768)"><g clip-path="url(#b8f716ce91)"><g clip-path="url(#ae4c4fd94c)"><path fill="#9da073" d="M 295.15625 239.628906 C 291.003906 239.316406 285.246094 235.5 289.4375 220.921875 C 293.625 206.339844 287.632812 202.035156 294.78125 202.765625 C 301.929688 203.496094 308.941406 212.921875 311.238281 220.914062 C 313.53125 228.90625 306.183594 240.449219 295.15625 239.628906 Z M 295.15625 239.628906 " fill-opacity="1" fill-rule="nonzero"/></g></g></g><g clip-path="url(#b511021aa3)"><g clip-path="url(#2a37984264)"><g clip-path="url(#e9e9f68712)"><path fill="#9da073" d="M 258.21875 134.023438 C 256.710938 132.476562 255.339844 130.808594 254.121094 129.03125 C 252.21875 126.304688 249.917969 123.886719 247.3125 121.832031 C 244.882812 119.96875 242.203125 118.566406 239.421875 117.328125 C 237.398438 116.425781 235.347656 116.527344 233.335938 117.207031 C 230.78125 118.078125 228.277344 119.042969 225.773438 120.046875 C 223.5 120.945312 221.308594 122.046875 218.929688 122.605469 C 215.609375 123.441406 212.128906 123.417969 208.820312 122.539062 C 206.398438 121.867188 203.972656 121.273438 201.535156 120.617188 C 199.777344 120.148438 198.199219 119.257812 196.71875 118.234375 C 193.097656 115.730469 190.160156 112.644531 188.085938 108.707031 C 185.640625 104.066406 183.589844 99.234375 181.953125 94.226562 C 180.746094 90.511719 180.496094 86.648438 180.578125 82.761719 C 180.597656 80.636719 180.878906 78.523438 181.433594 76.46875 C 182.074219 74.15625 183.226562 72.003906 184.859375 70.234375 C 186.601562 68.320312 188.402344 66.5 190.742188 65.328125 C 195.289062 63.03125 200.039062 62.320312 204.890625 64.054688 C 206.734375 64.691406 208.496094 65.664062 210.203125 66.652344 C 213.980469 68.828125 218.074219 70.375 222.355469 71.238281 C 225.578125 71.910156 228.855469 71.875 232.15625 71.746094 C 235.753906 71.585938 239.335938 71.335938 242.929688 71.363281 C 248.105469 71.410156 253.246094 71.957031 258.195312 73.523438 C 261.023438 74.425781 263.730469 75.550781 266.105469 77.320312 C 270.230469 80.394531 272.84375 84.402344 273.300781 89.628906 C 273.578125 92.558594 273.707031 95.484375 273.925781 98.394531 C 274.097656 101.023438 274.289062 103.632812 275.097656 106.167969 C 275.953125 109.054688 277.5625 111.660156 279.722656 113.742188 C 281.375 115.289062 283.105469 116.761719 284.78125 118.253906 C 286.632812 119.933594 288.355469 121.746094 289.65625 123.914062 C 291.996094 127.75 291.78125 131.582031 289.578125 135.382812 C 287.53125 138.855469 284.417969 141.054688 280.765625 142.535156 C 278.980469 143.257812 277.085938 143.675781 275.183594 143.78125 C 272.574219 143.90625 270.230469 143.089844 267.972656 141.863281 C 265.476562 140.503906 263.308594 138.71875 261.234375 136.808594 Z M 258.21875 134.023438 " fill-opacity="1" fill-rule="nonzero"/></g></g></g><g clip-path="url(#a17971c2b0)"><g clip-path="url(#6a74f38d5b)"><g clip-path="url(#5b5d8d6b04)"><path fill="#9da073" d="M 91.019531 232.765625 C 96.019531 229.214844 106.132812 228.117188 115.0625 248.539062 C 123.988281 268.964844 134.832031 268.199219 126.035156 274.09375 C 117.238281 279.992188 100.4375 275.929688 90.335938 269.050781 C 80.230469 262.175781 77.734375 242.207031 91.019531 232.765625 Z M 91.019531 232.765625 " fill-opacity="1" fill-rule="nonzero"/></g></g></g><g clip-path="url(#6474a83da4)"><g clip-path="url(#e3424e76db)"><g clip-path="url(#4e7ac34a07)"><path fill="#9da073" d="M 277.269531 131.636719 C 256.882812 116.8125 228.539062 85.1875 193.535156 92.753906 C 158.53125 100.324219 111.421875 140.617188 101.875 164.839844 C 92.332031 189.0625 96.015625 248.164062 150.527344 275.15625 C 205.042969 302.148438 258.207031 286.160156 294.949219 194.015625 C 294.949219 194.015625 297.652344 146.460938 277.269531 131.636719 Z M 193.09375 269.238281 C 176.644531 270.113281 157.292969 258.863281 138.21875 237.214844 C 119.144531 215.566406 121.617188 202.683594 119.230469 184.769531 C 116.84375 166.851562 129.683594 151.328125 146.6875 135.480469 C 163.691406 119.632812 183.066406 113.164062 200.214844 113.808594 C 222.695312 114.617188 248.90625 126.65625 262.96875 135.109375 C 277.03125 143.5625 281.441406 168.875 279.578125 184.785156 C 277.71875 200.695312 268.847656 213.476562 254.136719 235.652344 C 239.425781 257.824219 209.542969 268.359375 193.09375 269.238281 Z M 193.09375 269.238281 " fill-opacity="1" fill-rule="nonzero"/></g></g></g><g fill="#ffffff" fill-opacity="1"><g transform="translate(97.097163, 187.790817)"><g><path d="M 24 0 L 32.917969 0 L 23.78125 -16.238281 C 35.34375 -19.597656 33.964844 -39.359375 19.929688 -39.359375 L 4.402344 -39.359375 L 4.402344 0 L 12.277344 0 L 12.277344 -15.027344 L 16.074219 -15.027344 Z M 12.277344 -22.679688 L 12.277344 -31.488281 L 19.210938 -31.488281 C 24.550781 -31.488281 24.550781 -22.679688 19.210938 -22.679688 Z M 12.277344 -22.679688 "/></g></g></g><g fill="#ffffff" fill-opacity="1"><g transform="translate(130.232948, 187.790817)"><g><path d="M 0.878906 0 L 9.800781 0 L 11.339844 -4.238281 L 24.386719 -4.238281 L 25.984375 0 L 34.847656 0 L 18.277344 -40.792969 L 17.449219 -40.792969 Z M 14.203125 -11.617188 L 17.890625 -21.855469 L 21.46875 -11.617188 Z M 14.203125 -11.617188 "/></g></g></g><g fill="#ffffff" fill-opacity="1"><g transform="translate(165.570462, 187.790817)"><g><path d="M 12.277344 -21.414062 L 32.203125 0.824219 L 34.296875 0.824219 L 34.296875 -39.304688 L 26.367188 -39.304688 L 26.367188 -17.066406 L 6.496094 -40.1875 L 4.402344 -40.1875 L 4.402344 0 L 12.277344 0 Z M 12.277344 -21.414062 "/></g></g></g><g fill="#ffffff" fill-opacity="1"><g transform="translate(203.715168, 187.790817)"><g><path d="M 29.453125 -30.222656 L 30.386719 -38.316406 C 28.019531 -39.359375 25.378906 -39.855469 22.625 -39.855469 C -4.019531 -39.855469 -4.074219 0.109375 22.625 0.109375 C 25.378906 0.109375 28.847656 -0.550781 31.269531 -1.542969 L 30.222656 -9.6875 C 28.734375 -8.917969 26.039062 -7.925781 22.625 -7.925781 C 7.046875 -7.925781 7.046875 -31.929688 22.625 -31.929688 C 26.039062 -31.929688 27.964844 -30.992188 29.453125 -30.222656 Z M 29.453125 -30.222656 "/></g></g></g><g fill="#ffffff" fill-opacity="1"><g transform="translate(236.245478, 187.790817)"><g><path d="M 12.277344 0 L 12.277344 -39.359375 L 4.402344 -39.359375 L 4.402344 0 Z M 12.277344 0 "/></g></g></g><g fill="#ffffff" fill-opacity="1"><g transform="translate(252.37296, 187.790817)"><g><path d="M 16.128906 -39.359375 L 4.402344 -39.359375 L 4.402344 0 L 16.128906 0 C 42.332031 0 42.332031 -39.359375 16.128906 -39.359375 Z M 16.128906 -31.488281 C 31.433594 -31.488281 31.433594 -7.871094 16.128906 -7.871094 L 12.277344 -7.871094 L 12.277344 -31.488281 Z M 16.128906 -31.488281 "/></g></g></g><g fill="#ffffff" fill-opacity="1"><g transform="translate(96.348284, 214.910391)"><g><path d="M 10.46875 0 L 10.46875 -17.5625 L 15.9375 -17.5625 L 15.9375 -21.921875 L 0.613281 -21.921875 L 0.613281 -17.5625 L 6.078125 -17.5625 L 6.078125 0 Z M 10.46875 0 "/></g></g></g><g fill="#ffffff" fill-opacity="1"><g transform="translate(113.142865, 214.910391)"><g><path d="M 13.019531 0.308594 C 28.125 0.308594 28.125 -22.324219 13.019531 -22.324219 C -2.089844 -22.324219 -2.089844 0.308594 13.019531 0.308594 Z M 13.019531 -4.238281 C 4.238281 -4.238281 4.238281 -17.808594 13.019531 -17.808594 C 21.800781 -17.808594 21.800781 -4.238281 13.019531 -4.238281 Z M 13.019531 -4.238281 "/></g></g></g><g fill="#ffffff" fill-opacity="1"><g transform="translate(139.14836, 214.910391)"><g><path d="M 12.527344 -12.652344 L 3.867188 -22.292969 L 2.457031 -22.292969 L 2.457031 0 L 6.910156 0 L 6.910156 -12.25 L 12.527344 -6.355469 L 18.148438 -12.25 L 18.117188 0 L 22.566406 0 L 22.566406 -22.292969 L 21.1875 -22.292969 Z M 12.527344 -12.652344 "/></g></g></g><g fill="#ffffff" fill-opacity="1"><g transform="translate(164.202062, 214.910391)"><g><path d="M 0.492188 0 L 5.464844 0 L 6.324219 -2.363281 L 13.601562 -2.363281 L 14.492188 0 L 19.4375 0 L 10.195312 -22.753906 L 9.734375 -22.753906 Z M 7.921875 -6.480469 L 9.980469 -12.191406 L 11.976562 -6.480469 Z M 7.921875 -6.480469 "/></g></g></g><g fill="#ffffff" fill-opacity="1"><g transform="translate(184.25116, 214.910391)"><g><path d="M 10.46875 0 L 10.46875 -17.5625 L 15.9375 -17.5625 L 15.9375 -21.921875 L 0.613281 -21.921875 L 0.613281 -17.5625 L 6.078125 -17.5625 L 6.078125 0 Z M 10.46875 0 "/></g></g></g><g fill="#ffffff" fill-opacity="1"><g transform="translate(201.045741, 214.910391)"><g><path d="M 6.847656 0 L 6.847656 -21.953125 L 2.457031 -21.953125 L 2.457031 0 Z M 6.847656 0 "/></g></g></g><g fill="#ffffff" fill-opacity="1"><g transform="translate(210.379473, 214.910391)"><g><path d="M 2.457031 -21.953125 L 2.457031 0 L 13.816406 0 L 13.816406 -4.390625 L 6.847656 -4.390625 L 6.847656 -21.953125 Z M 2.457031 -21.953125 "/></g></g></g><g fill="#ffffff" fill-opacity="1"><g transform="translate(225.51608, 214.910391)"><g><path d="M 2.457031 -21.953125 L 2.457031 0 L 13.816406 0 L 13.816406 -4.390625 L 6.847656 -4.390625 L 6.847656 -21.953125 Z M 2.457031 -21.953125 "/></g></g></g><g fill="#ffffff" fill-opacity="1"><g transform="translate(240.652687, 214.910391)"><g><path d="M 13.019531 0.308594 C 28.125 0.308594 28.125 -22.324219 13.019531 -22.324219 C -2.089844 -22.324219 -2.089844 0.308594 13.019531 0.308594 Z M 13.019531 -4.238281 C 4.238281 -4.238281 4.238281 -17.808594 13.019531 -17.808594 C 21.800781 -17.808594 21.800781 -4.238281 13.019531 -4.238281 Z M 13.019531 -4.238281 "/></g></g></g><g fill="#ffffff" fill-opacity="1"><g transform="translate(266.658182, 214.910391)"><g><path d="M 1.441406 -1.414062 C 4.421875 0.121094 7.152344 0.277344 8.382812 0.183594 C 12.496094 -0.03125 15.015625 -2.824219 15.015625 -6.480469 C 15.015625 -9.980469 12.066406 -11.945312 8.660156 -13.203125 C 7.398438 -13.632812 6.324219 -14.1875 6.203125 -15.414062 C 6.109375 -16.640625 6.816406 -17.777344 8.382812 -17.871094 C 9.058594 -17.902344 10.441406 -17.933594 12.867188 -16.949219 L 13.417969 -21.1875 C 10.59375 -22.167969 9.089844 -22.167969 7.953125 -22.109375 C 4.296875 -21.921875 1.75 -19.097656 1.75 -15.414062 C 1.75 -11.730469 4.820312 -9.980469 8.257812 -8.71875 C 9.488281 -8.289062 10.441406 -7.738281 10.53125 -6.480469 C 10.65625 -5.28125 9.550781 -4.359375 8.257812 -4.269531 C 7.246094 -4.175781 4.511719 -4.238281 1.996094 -6.019531 Z M 1.441406 -1.414062 "/></g></g></g></svg>